<svg id="visual" viewBox="0 0 900 600" width="900" height="600" xmlns="http://www.w3.org/2000/svg" xmlns:xlink="http://www.w3.org/1999/xlink" version="1.1"><path d="M0 163L30 162C60 161 120 159 180 151C240 143 300 129 360 133C420 137 480 159 540 167C600 175 660 169 720 163C780 157 840 151 870 148L900 145L900 0L870 0C840 0 780 0 720 0C660 0 600 0 540 0C480 0 420 0 360 0C300 0 240 0 180 0C120 0 60 0 30 0L0 0Z" fill="#2220a9"></path><path d="M0 361L30 356C60 351 120 341 180 334C240 327 300 323 360 321C420 319 480 319 540 318C600 317 660 315 720 308C780 301 840 289 870 283L900 277L900 143L870 146C840 149 780 155 720 161C660 167 600 173 540 165C480 157 420 135 360 131C300 127 240 141 180 149C120 157 60 159 30 160L0 161Z" fill="#121d90"></path><path d="M0 415L30 412C60 409 120 403 180 395C240 387 300 377 360 372C420 367 480 367 540 370C600 373 660 379 720 371C780 363 840 341 870 330L900 319L900 275L870 281C840 287 780 299 720 306C660 313 600 315 540 316C480 317 420 317 360 319C300 321 240 325 180 332C120 339 60 349 30 354L0 359Z" fill="#031977"></path><path d="M0 499L30 494C60 489 120 479 180 477C240 475 300 481 360 478C420 475 480 463 540 458C600 453 660 455 720 452C780 449 840 441 870 437L900 433L900 317L870 328C840 339 780 361 720 369C660 377 600 371 540 368C480 365 420 365 360 370C300 375 240 385 180 393C120 401 60 407 30 410L0 413Z" fill="#00155f"></path><path d="M0 547L30 547C60 547 120 547 180 547C240 547 300 547 360 544C420 541 480 535 540 528C600 521 660 513 720 510C780 507 840 509 870 510L900 511L900 431L870 435C840 439 780 447 720 450C660 453 600 451 540 456C480 461 420 473 360 476C300 479 240 473 180 475C120 477 60 487 30 492L0 497Z" fill="#000f47"></path><path d="M0 601L30 601C60 601 120 601 180 601C240 601 300 601 360 601C420 601 480 601 540 601C600 601 660 601 720 601C780 601 840 601 870 601L900 601L900 509L870 508C840 507 780 505 720 508C660 511 600 519 540 526C480 533 420 539 360 542C300 545 240 545 180 545C120 545 60 545 30 545L0 545Z" fill="#020230"></path></svg>